<?xml version="1.0" encoding="utf-8"?>
<!-- Svg Vector Icons : http://www.onlinewebfonts.com/icon -->
<!DOCTYPE svg PUBLIC "-//W3C//DTD SVG 1.1//EN" "http://www.w3.org/Graphics/SVG/1.1/DTD/svg11.dtd">
<svg version="1.1" xmlns="http://www.w3.org/2000/svg" xmlns:xlink="http://www.w3.org/1999/xlink" x="0px" y="0px" viewBox="0 0 1000 1000" enable-background="new 0 0 1000 1000" xml:space="preserve">
<metadata> Svg Vector Icons : http://www.onlinewebfonts.com/icon </metadata>
<g><path d="M227.5,533.4h-188c-16.2,0-29.5-13.3-29.5-29.5V503c0-16.2,13.3-29.5,29.5-29.5h188c16.2,0,29.5,13.3,29.5,29.5v0.8C256.9,520.1,243.7,533.4,227.5,533.4z"/><path d="M960.5,533.4h-188c-16.2,0-29.5-13.3-29.5-29.5V503c0-16.2,13.3-29.5,29.5-29.5h188c16.2,0,29.5,13.3,29.5,29.5v0.8C990,520.1,976.7,533.4,960.5,533.4z"/><path d="M918,294.3l-163.6,92.6c-14.1,8-32.2,3-40.2-11.1l-0.4-0.7c-8-14.1-3-32.2,11.1-40.2l163.6-92.6c14.1-8,32.2-3,40.2,11.1l0.4,0.7C937.1,268.2,932.1,286.3,918,294.3z"/><path d="M758.6,114.2l-96.8,161.1c-8.3,13.9-26.5,18.4-40.4,10.1l-0.7-0.4c-13.9-8.4-18.4-26.6-10.1-40.4l96.8-161.1c8.4-13.9,26.6-18.4,40.4-10.1l0.7,0.4C762.4,82.1,766.9,100.3,758.6,114.2z"/><path d="M529.5,40.5l-1,188c-0.1,16.2-13.4,29.4-29.6,29.3l-0.8,0c-16.2-0.1-29.4-13.4-29.3-29.6l1-188c0.1-16.2,13.4-29.4,29.6-29.3l0.8,0C516.4,11,529.6,24.3,529.5,40.5z"/><path d="M297.6,83.1l94.4,162.6c8.1,14,3.3,32.2-10.7,40.3l-0.7,0.4c-14,8.1-32.2,3.3-40.3-10.7l-94.4-162.6c-8.1-14-3.3-32.2,10.7-40.3l0.7-0.4C271.3,64.3,289.4,69.1,297.6,83.1z"/><path d="M113.8,241.9l163,93.6c14.1,8.1,19,26.2,10.9,40.2l-0.4,0.7c-8.1,14.1-26.2,19-40.2,10.9L84,293.7c-14.1-8.1-19-26.2-10.9-40.2l0.4-0.7C81.6,238.7,99.8,233.8,113.8,241.9z"/><path d="M887.9,756.6l-162.8-94c-14-8.1-18.9-26.2-10.8-40.3l0.4-0.7c8.1-14,26.2-18.9,40.3-10.8l162.8,94c14,8.1,18.9,26.2,10.8,40.3l-0.4,0.7C920.1,759.8,902,764.7,887.9,756.6z"/><path d="M278.2,660.3l-162.2,95c-14,8.2-32.1,3.4-40.3-10.5l-0.4-0.7c-8.2-14-3.4-32.1,10.5-40.3l162.2-95c14-8.2,32.1-3.4,40.3,10.5l0.4,0.7C296.9,633.9,292.2,652.1,278.2,660.3z"/><path d="M391.5,748.6l-93.2,163.3c-8,14.1-26.1,19-40.2,11l-0.7-0.4c-14.1-8-19-26.1-11-40.2L339.5,719c8-14.1,26.1-19,40.2-11l0.7,0.4C394.5,716.4,399.5,734.5,391.5,748.6z"/><path d="M531.1,771.8l-0.7,188c-0.1,16.2-13.4,29.4-29.6,29.4l-0.8,0c-16.2-0.1-29.4-13.4-29.4-29.6l0.7-188c0.1-16.2,13.4-29.4,29.6-29.4l0.8,0C518,742.3,531.2,755.6,531.1,771.8z"/><path d="M664.7,722.3l92,164c7.9,14.1,2.9,32.2-11.3,40.1l-0.7,0.4c-14.1,7.9-32.2,2.9-40.1-11.3l-92-164c-7.9-14.1-2.9-32.2,11.3-40.1l0.7-0.4C638.7,703,656.7,708.1,664.7,722.3z"/></g>
</svg>